<?xml version="1.0" standalone="no"?>
<!DOCTYPE svg PUBLIC "-//W3C//DTD SVG 20010904//EN"
 "http://www.w3.org/TR/2001/REC-SVG-20010904/DTD/svg10.dtd">
<svg version="1.0" xmlns="http://www.w3.org/2000/svg"
 width="2000.000000pt" height="2000.000000pt" viewBox="0 0 2000.000000 2000.000000"
 preserveAspectRatio="xMidYMid meet">
<metadata>
Created by potrace 1.16, written by Peter Selinger 2001-2019
</metadata>
<g transform="translate(0.000000,2000.000000) scale(0.100000,-0.100000)"
fill="#000000" stroke="none">
<path d="M3100 12620 l0 -4160 2590 0 2590 0 -18 -37 c-24 -47 -128 -304 -194
-478 -128 -339 -208 -677 -208 -876 0 -182 135 -554 374 -1033 l111 -221 90
-26 c80 -24 91 -29 102 -57 8 -20 14 -106 17 -244 2 -117 11 -267 20 -333 36
-264 117 -604 214 -900 21 -66 49 -167 61 -225 33 -156 84 -298 161 -455 81
-164 176 -443 244 -713 25 -101 46 -191 46 -201 0 -10 -12 -23 -27 -30 -116
-52 -333 -206 -368 -260 -33 -51 -62 -230 -43 -268 37 -77 150 -107 448 -119
503 -20 1416 112 1454 211 10 26 7 137 -5 220 -10 65 -15 78 -34 85 l-23 9 30
167 c32 186 31 208 -18 331 -37 92 -43 192 -44 688 0 427 10 677 31 768 9 40
14 47 35 47 32 0 70 -38 96 -97 23 -53 24 -79 7 -368 -15 -266 -16 -689 -2
-1015 13 -289 25 -409 52 -540 13 -60 17 -110 13 -172 -6 -114 0 -133 47 -158
182 -93 988 -193 1411 -176 298 12 411 42 448 119 19 38 -10 217 -43 268 -38
59 -186 162 -407 283 -66 36 -67 37 -96 114 -57 148 -62 123 96 444 202 409
227 484 192 580 -13 35 -12 42 9 90 13 29 35 80 49 113 68 162 212 864 272
1330 12 88 24 239 27 335 l6 176 86 24 86 25 111 221 c175 352 305 674 355
879 60 250 -31 650 -300 1311 -33 83 -61 154 -61 158 0 3 882 6 1960 6 l1960
0 0 4160 0 4160 -7005 0 -7005 0 0 -4160z m3293 3217 c212 -56 390 -159 547
-317 158 -158 261 -336 317 -547 21 -81 26 -128 30 -273 7 -259 -24 -414 -126
-613 l-49 -97 170 -116 c398 -271 461 -315 470 -328 14 -21 8 -53 -15 -78
l-24 -26 -629 -6 c-1099 -11 -1070 -11 -1179 7 -293 49 -501 153 -695 347
-158 157 -259 333 -317 547 -25 92 -27 111 -27 318 0 207 2 226 27 318 58 214
159 390 317 547 180 181 384 289 632 336 51 9 131 12 263 10 166 -3 203 -7
288 -29z m5677 -2262 c6 -15 7 -65 3 -115 -10 -152 31 -285 131 -417 49 -65
161 -173 208 -201 17 -10 33 -33 43 -61 8 -24 34 -76 58 -115 24 -39 49 -96
56 -126 6 -30 27 -83 45 -117 33 -61 33 -65 28 -152 -6 -108 4 -153 63 -283
42 -91 95 -251 95 -287 0 -13 -23 -20 -115 -36 l-115 -21 -16 41 c-28 72 -107
188 -178 263 -121 127 -283 220 -458 262 -106 25 -306 27 -411 4 -214 -48
-410 -174 -545 -350 -72 -94 -150 -270 -167 -375 -13 -84 -10 -82 -63 -55 -63
32 -154 50 -210 41 -51 -8 -125 -39 -143 -61 -14 -18 -39 -18 -39 -1 0 24 -81
181 -125 242 -94 132 -251 256 -398 315 -143 57 -188 65 -362 64 -144 -1 -169
-3 -250 -28 -105 -32 -230 -96 -314 -160 -122 -94 -245 -259 -293 -391 l-22
-62 -135 -6 c-74 -4 -136 -5 -137 -4 -5 7 37 510 46 546 6 24 29 73 51 110 82
136 119 341 90 505 l-12 67 38 75 c36 74 37 78 34 177 -5 188 -5 203 13 258
20 59 123 239 138 239 5 0 16 -17 24 -37 15 -35 14 -78 -3 -153 -6 -25 -6 -25
15 -6 38 33 62 97 62 165 0 71 -22 166 -51 223 -11 21 -17 38 -15 38 3 0 41
-24 86 -54 307 -206 755 -316 1289 -316 182 0 198 -2 240 -22 41 -20 60 -23
171 -22 150 2 262 26 269 59 20 107 182 155 521 155 216 0 309 12 433 57 91
32 191 82 242 121 50 38 73 40 85 7z m-170 -1480 c89 -22 252 -103 327 -161
82 -64 144 -147 203 -269 71 -146 85 -204 84 -365 0 -124 -3 -142 -32 -230
-65 -194 -170 -338 -313 -430 -157 -100 -297 -144 -464 -144 -195 0 -404 79
-555 211 -64 57 -153 190 -196 298 l-35 86 16 44 c19 49 13 82 -26 136 -19 27
-21 39 -15 97 17 182 117 401 237 521 79 78 215 154 349 195 148 45 272 49
420 11z m-2227 -199 c170 -50 331 -150 413 -257 60 -79 127 -208 154 -296 l22
-73 -21 -62 c-27 -80 -26 -103 4 -134 30 -30 31 -57 5 -153 -45 -161 -135
-319 -232 -406 -143 -129 -369 -215 -562 -215 -162 0 -363 72 -508 180 -148
112 -267 334 -297 555 -25 181 44 414 175 589 106 140 314 259 516 295 87 16
232 6 331 -23z m3470 -330 c118 -58 215 -245 232 -450 6 -59 2 -86 -20 -161
-80 -273 -246 -455 -461 -504 -50 -12 -51 -13 -64 -64 -82 -328 -352 -662
-660 -817 -140 -70 -422 -153 -700 -204 -88 -17 -124 -27 -122 -36 16 -69
-157 -182 -480 -314 l-137 -56 -41 16 c-37 15 -43 15 -80 0 l-41 -16 -137 56
c-167 68 -338 155 -401 202 l-46 36 -255 8 c-464 14 -572 29 -737 97 -260 107
-467 313 -575 573 -17 40 -31 74 -32 75 -2 2 -49 14 -107 29 -142 35 -290 107
-369 181 -76 70 -113 123 -147 210 -24 61 -27 82 -27 198 -1 106 3 145 22 210
51 179 166 356 265 407 60 30 149 22 216 -20 33 -20 51 -26 51 -18 0 14 87 26
190 26 l55 0 -3 -92 c-6 -165 47 -359 140 -515 47 -79 188 -224 270 -280 93
-61 202 -108 316 -134 79 -18 113 -21 240 -17 124 5 160 9 232 33 175 56 330
157 436 284 162 194 235 412 221 667 l-6 113 63 31 c109 54 208 41 299 -40 30
-25 35 -38 41 -89 17 -154 94 -333 195 -461 333 -418 942 -470 1348 -114 117
103 226 278 274 439 25 81 38 341 21 413 -11 47 -20 41 88 61 30 6 71 12 91
14 20 2 42 7 49 12 59 37 227 43 293 11z m-1418 -4144 c16 -10 37 -32 47 -49
33 -56 87 -342 123 -653 5 -51 10 -59 50 -90 24 -19 70 -65 101 -103 39 -46
72 -74 104 -89 46 -21 48 -24 54 -72 18 -150 0 -395 -34 -473 -24 -56 -57 -75
-138 -81 l-67 -4 -2 -132 c-2 -72 -8 -143 -14 -157 -27 -67 -358 -185 -614
-219 -90 -12 -317 -11 -330 2 -3 3 -28 311 -55 684 -27 374 -56 762 -65 862
-20 245 -20 255 3 243 21 -11 111 18 207 66 56 29 153 118 142 130 -3 3 -84
-16 -179 -41 -309 -81 -617 -143 -888 -178 -52 -7 -180 -12 -285 -12 -153 0
-203 3 -255 18 -73 20 -140 54 -140 71 0 6 14 21 31 34 27 20 34 21 62 11 49
-19 290 -24 450 -11 276 24 685 83 1082 157 161 30 191 33 199 21 8 -12 24 -7
93 25 143 67 248 80 318 40z m-1957 -738 c16 -11 22 -25 22 -53 0 -33 -7 -43
-64 -94 -71 -63 -98 -110 -75 -132 12 -11 33 -8 134 22 209 61 383 55 393 -14
4 -27 -27 -45 -129 -72 l-74 -19 118 0 c130 0 167 -13 167 -55 0 -36 -22 -57
-80 -78 -43 -14 -49 -18 -27 -19 36 0 67 -17 67 -36 0 -51 -69 -99 -189 -130
l-86 -23 92 -1 c81 0 95 -3 119 -23 22 -19 26 -29 20 -50 -3 -15 -17 -33 -29
-42 -29 -18 -139 -35 -240 -35 -59 0 -104 -8 -175 -30 -201 -61 -367 -75 -428
-35 -35 23 -60 84 -73 178 -12 86 -14 272 -5 353 6 48 8 51 53 72 31 14 65 43
100 84 84 100 218 201 309 234 48 17 53 17 80 -2z"/>
<path d="M5935 15809 c-543 -70 -956 -497 -1016 -1050 -43 -396 158 -826 494
-1057 144 -100 343 -178 502 -197 l55 -7 1 48 c0 27 8 288 17 580 16 495 18
533 36 553 11 12 27 21 36 21 9 0 61 -31 116 -68 54 -37 270 -185 479 -328
209 -143 385 -264 392 -268 18 -10 118 200 148 314 38 144 50 286 36 412 -63
560 -476 980 -1031 1048 -97 12 -165 11 -265 -1z"/>
<path d="M6100 14524 c0 -22 -7 -237 -15 -479 -8 -242 -15 -459 -15 -482 l0
-43 123 0 c91 0 145 5 201 20 99 25 243 93 343 162 81 55 253 220 253 241 -1
7 -56 49 -123 95 -67 46 -257 176 -422 289 -165 113 -310 212 -322 220 -23 15
-23 14 -23 -23z"/>
<path d="M6955 13806 c-107 -109 -185 -169 -305 -235 l-75 -41 320 1 c176 1
403 4 505 8 l185 6 -145 100 c-129 89 -320 220 -368 252 -15 9 -31 -3 -117
-91z"/>
<path d="M11193 12651 c-56 -3 -104 -8 -106 -11 -13 -13 -37 -119 -37 -161 0
-68 9 -72 126 -57 57 7 222 12 389 12 235 1 315 -3 425 -19 74 -10 153 -19
175 -20 36 0 40 2 43 28 7 55 -75 156 -163 200 -63 31 -134 37 -443 35 -169
-1 -353 -4 -409 -7z"/>
<path d="M9575 12499 c-410 -38 -612 -67 -701 -100 -122 -46 -247 -221 -190
-268 11 -9 54 -1 192 33 276 69 477 99 764 112 85 3 161 11 168 16 20 17 14
73 -15 148 l-27 70 -51 -1 c-27 -1 -90 -5 -140 -10z"/>
<path d="M11548 11636 c-75 -31 -176 -104 -232 -168 -25 -29 -44 -53 -43 -54
1 -2 41 13 89 32 186 74 376 103 561 85 62 -6 136 -18 165 -25 73 -20 56 -2
-55 56 -181 96 -364 124 -485 74z"/>
<path d="M9351 11428 c-83 -13 -185 -72 -276 -160 -43 -42 -77 -80 -74 -83 3
-3 36 9 73 25 201 92 475 121 701 74 91 -18 96 -18 60 7 -98 66 -270 130 -380
141 -27 3 -74 1 -104 -4z"/>
<path d="M11239 9875 c-8 -8 -363 -63 -524 -81 -106 -12 -236 -18 -442 -18
-161 -1 -293 -3 -293 -6 0 -12 101 -72 165 -99 197 -82 460 -81 711 4 136 46
448 205 403 205 -9 0 -18 -2 -20 -5z"/>
</g>
</svg>
